<svg width="353" height="35" viewBox="0 0 353 35" fill="none" xmlns="http://www.w3.org/2000/svg">
<path d="M28.0898 19.7578C28.0898 20.7604 27.9596 21.6654 27.6992 22.4727C27.4518 23.2669 27.1198 23.9701 26.7031 24.582C26.2865 25.194 25.7982 25.7148 25.2383 26.1445C24.6784 26.5742 24.099 26.9258 23.5 27.1992C22.901 27.4727 22.2891 27.6745 21.6641 27.8047C21.0521 27.9349 20.4727 28 19.9258 28H0.335938V22.9219H19.9258C20.9023 22.9219 21.6576 22.6354 22.1914 22.0625C22.7383 21.4896 23.0117 20.7214 23.0117 19.7578C23.0117 19.2891 22.9401 18.8594 22.7969 18.4688C22.6536 18.0781 22.4453 17.7396 22.1719 17.4531C21.9115 17.1667 21.5859 16.9453 21.1953 16.7891C20.8177 16.6328 20.3945 16.5547 19.9258 16.5547H8.24609C7.42578 16.5547 6.54036 16.4115 5.58984 16.125C4.63932 15.8255 3.75391 15.3503 2.93359 14.6992C2.1263 14.0482 1.44922 13.1953 0.902344 12.1406C0.36849 11.0859 0.101562 9.79688 0.101562 8.27344C0.101562 6.75 0.36849 5.46745 0.902344 4.42578C1.44922 3.37109 2.1263 2.51823 2.93359 1.86719C3.75391 1.20312 4.63932 0.727865 5.58984 0.441406C6.54036 0.141927 7.42578 -0.0078125 8.24609 -0.0078125H25.5312V5.07031H8.24609C7.28255 5.07031 6.52734 5.36328 5.98047 5.94922C5.44661 6.53516 5.17969 7.3099 5.17969 8.27344C5.17969 9.25 5.44661 10.0247 5.98047 10.5977C6.52734 11.1576 7.28255 11.4375 8.24609 11.4375H19.9258H19.9648C20.5117 11.4505 21.0911 11.5286 21.7031 11.6719C22.3151 11.8021 22.9206 12.0104 23.5195 12.2969C24.1315 12.5833 24.7109 12.9479 25.2578 13.3906C25.8047 13.8203 26.2865 14.3411 26.7031 14.9531C27.1328 15.5651 27.4714 16.2682 27.7188 17.0625C27.9661 17.8568 28.0898 18.7552 28.0898 19.7578ZM54.8281 25.4414C54.8281 25.806 54.763 26.1445 54.6328 26.457C54.5026 26.7695 54.3203 27.043 54.0859 27.2773C53.8646 27.4987 53.5977 27.6745 53.2852 27.8047C52.9857 27.9349 52.6602 28 52.3086 28H40.8242C40.1992 28 39.5286 27.9284 38.8125 27.7852C38.1094 27.6419 37.4128 27.4141 36.7227 27.1016C36.0326 26.776 35.362 26.3724 34.7109 25.8906C34.0729 25.3958 33.513 24.8034 33.0312 24.1133C32.5495 23.4102 32.1589 22.6029 31.8594 21.6914C31.5729 20.7799 31.4297 19.7513 31.4297 18.6055V6.88672H36.5078V18.6055C36.5078 19.2695 36.6185 19.8685 36.8398 20.4023C37.0742 20.9232 37.3867 21.3724 37.7773 21.75C38.168 22.1276 38.6237 22.4206 39.1445 22.6289C39.6784 22.8242 40.2513 22.9219 40.8633 22.9219H49.75V6.88672H54.8281V25.4414ZM82.9922 28H77.9141V16.2812C77.9141 15.6172 77.7969 15.0247 77.5625 14.5039C77.3411 13.9701 77.0352 13.5143 76.6445 13.1367C76.2539 12.7591 75.7917 12.4727 75.2578 12.2773C74.737 12.069 74.1706 11.9648 73.5586 11.9648H64.6719V28H59.5938V9.40625C59.5938 9.05469 59.6589 8.72917 59.7891 8.42969C59.9193 8.11719 60.1016 7.85026 60.3359 7.62891C60.5703 7.39453 60.8438 7.21224 61.1562 7.08203C61.4688 6.95182 61.8008 6.88672 62.1523 6.88672H73.5977C74.2357 6.88672 74.9062 6.95833 75.6094 7.10156C76.3255 7.24479 77.0286 7.47917 77.7188 7.80469C78.4219 8.11719 79.0859 8.52083 79.7109 9.01562C80.349 9.4974 80.9089 10.0898 81.3906 10.793C81.8854 11.4831 82.276 12.2839 82.5625 13.1953C82.849 14.1068 82.9922 15.1354 82.9922 16.2812V28ZM115.922 11.7109C115.922 12.8698 115.779 13.9049 115.492 14.8164C115.206 15.7279 114.815 16.5352 114.32 17.2383C113.839 17.9284 113.279 18.5208 112.641 19.0156C112.003 19.5104 111.332 19.9141 110.629 20.2266C109.939 20.5391 109.236 20.7669 108.52 20.9102C107.816 21.0534 107.152 21.125 106.527 21.125H95.043V16.0469H106.527C107.178 15.9948 107.764 15.8646 108.285 15.6562C108.819 15.4349 109.275 15.1419 109.652 14.7773C110.03 14.4128 110.323 13.9766 110.531 13.4688C110.74 12.9479 110.844 12.362 110.844 11.7109V9.40625C110.779 8.76823 110.642 8.18229 110.434 7.64844C110.225 7.11458 109.939 6.65885 109.574 6.28125C109.223 5.90365 108.793 5.61068 108.285 5.40234C107.777 5.18099 107.191 5.07031 106.527 5.07031H95.082C94.4049 5.07031 93.8906 5.24609 93.5391 5.59766C93.1875 5.94922 93.0117 6.45703 93.0117 7.12109V28H87.9336V7.12109C87.9336 5.81901 88.168 4.71224 88.6367 3.80078C89.1185 2.88932 89.7109 2.15365 90.4141 1.59375C91.1302 1.03385 91.9049 0.630208 92.7383 0.382812C93.5716 0.122396 94.3398 -0.0078125 95.043 -0.0078125H106.527C107.673 -0.0078125 108.702 0.141927 109.613 0.441406C110.525 0.727865 111.326 1.11849 112.016 1.61328C112.719 2.09505 113.311 2.65495 113.793 3.29297C114.288 3.93099 114.691 4.60156 115.004 5.30469C115.329 5.99479 115.564 6.69792 115.707 7.41406C115.85 8.11719 115.922 8.78125 115.922 9.40625V11.7109ZM142.797 25.4414C142.797 25.806 142.732 26.1445 142.602 26.457C142.471 26.7695 142.289 27.043 142.055 27.2773C141.833 27.4987 141.566 27.6745 141.254 27.8047C140.954 27.9349 140.629 28 140.277 28H128.793C128.168 28 127.497 27.9284 126.781 27.7852C126.078 27.6419 125.382 27.4141 124.691 27.1016C124.001 26.776 123.331 26.3724 122.68 25.8906C122.042 25.3958 121.482 24.8034 121 24.1133C120.518 23.4102 120.128 22.6029 119.828 21.6914C119.542 20.7799 119.398 19.7513 119.398 18.6055V6.88672H124.477V18.6055C124.477 19.2695 124.587 19.8685 124.809 20.4023C125.043 20.9232 125.355 21.3724 125.746 21.75C126.137 22.1276 126.592 22.4206 127.113 22.6289C127.647 22.8242 128.22 22.9219 128.832 22.9219H137.719V6.88672H142.797V25.4414ZM166.41 28H161.332V13.9961C161.332 13.332 161.156 12.8307 160.805 12.4922C160.453 12.1406 159.932 11.9648 159.242 11.9648H152.641V28H147.562V9.40625C147.562 9.05469 147.628 8.72917 147.758 8.42969C147.888 8.11719 148.07 7.85026 148.305 7.62891C148.539 7.39453 148.812 7.21224 149.125 7.08203C149.438 6.95182 149.77 6.88672 150.121 6.88672H159.281C159.984 6.88672 160.74 7.01042 161.547 7.25781C162.354 7.50521 163.122 7.90234 163.852 8.44922V6.88672H170.727C171.208 6.88672 171.716 6.94531 172.25 7.0625C172.784 7.16667 173.311 7.33594 173.832 7.57031C174.366 7.80469 174.874 8.11068 175.355 8.48828C175.837 8.85286 176.26 9.30208 176.625 9.83594C176.99 10.3568 177.283 10.9622 177.504 11.6523C177.725 12.3424 177.836 13.1237 177.836 13.9961V28H172.758V13.9961C172.758 13.332 172.589 12.8307 172.25 12.4922C171.924 12.1406 171.417 11.9648 170.727 11.9648H166.156C166.326 12.5898 166.41 13.2669 166.41 13.9961V28ZM205.805 20.8711C205.805 21.7435 205.694 22.5312 205.473 23.2344C205.251 23.9245 204.958 24.5365 204.594 25.0703C204.229 25.5911 203.806 26.0404 203.324 26.418C202.842 26.7826 202.335 27.082 201.801 27.3164C201.28 27.5508 200.753 27.7266 200.219 27.8438C199.685 27.9479 199.177 28 198.695 28H189.535V22.9219H198.695C199.372 22.9219 199.88 22.7461 200.219 22.3945C200.557 22.043 200.727 21.5352 200.727 20.8711V14.0352C200.727 13.332 200.551 12.8112 200.199 12.4727C199.861 12.1341 199.359 11.9648 198.695 11.9648H189.574C188.884 11.9648 188.363 12.1406 188.012 12.4922C187.66 12.8307 187.484 13.332 187.484 13.9961V34.6016H182.406V13.9961C182.406 13.1237 182.517 12.3424 182.738 11.6523C182.96 10.9622 183.253 10.3568 183.617 9.83594C183.995 9.30208 184.424 8.85286 184.906 8.48828C185.388 8.11068 185.889 7.80469 186.41 7.57031C186.944 7.33594 187.478 7.16667 188.012 7.0625C188.559 6.94531 189.066 6.88672 189.535 6.88672H198.695C199.568 6.88672 200.349 6.9974 201.039 7.21875C201.729 7.4401 202.335 7.73307 202.855 8.09766C203.389 8.46224 203.839 8.88542 204.203 9.36719C204.581 9.84896 204.887 10.3568 205.121 10.8906C205.355 11.4115 205.525 11.9388 205.629 12.4727C205.746 13.0065 205.805 13.5143 205.805 13.9961V20.8711ZM246.742 16.5547H230.707V11.4375H246.742V16.5547ZM249.027 28H230.707C230.004 28 229.236 27.8763 228.402 27.6289C227.569 27.3815 226.794 26.9779 226.078 26.418C225.375 25.8451 224.783 25.1094 224.301 24.2109C223.832 23.2995 223.598 22.1862 223.598 20.8711V2.55078C223.598 2.19922 223.663 1.86719 223.793 1.55469C223.923 1.24219 224.099 0.96875 224.32 0.734375C224.555 0.5 224.828 0.317708 225.141 0.1875C225.453 0.0572917 225.792 -0.0078125 226.156 -0.0078125H249.027V5.07031H228.676V20.8711C228.676 21.5352 228.852 22.043 229.203 22.3945C229.555 22.7461 230.069 22.9219 230.746 22.9219H249.027V28ZM278.422 6.88672C277.849 8.67057 277.178 10.4284 276.41 12.1602C275.642 13.8919 274.757 15.5456 273.754 17.1211C272.764 18.6836 271.651 20.1354 270.414 21.4766C269.19 22.8047 267.829 23.957 266.332 24.9336C264.848 25.8971 263.227 26.6589 261.469 27.2188C259.724 27.7656 257.829 28.0391 255.785 28.0391C255.434 28.0391 255.102 27.974 254.789 27.8438C254.477 27.7135 254.203 27.5378 253.969 27.3164C253.734 27.082 253.552 26.8151 253.422 26.5156C253.292 26.2031 253.227 25.8711 253.227 25.5195V6.88672H258.305V22.7656C259.542 22.7656 260.727 22.4987 261.859 21.9648C263.005 21.431 264.086 20.7279 265.102 19.8555C266.117 18.9701 267.055 17.9674 267.914 16.8477C268.786 15.7279 269.561 14.582 270.238 13.4102C270.915 12.2253 271.488 11.0664 271.957 9.93359C272.439 8.80078 272.797 7.78516 273.031 6.88672H278.422ZM302.973 13.8789C302.973 14.582 302.849 15.3438 302.602 16.1641C302.354 16.9714 301.951 17.7266 301.391 18.4297C300.844 19.1198 300.121 19.6992 299.223 20.168C298.337 20.6367 297.257 20.8711 295.98 20.8711H286.82V16.0469H295.98C296.671 16.0469 297.204 15.8385 297.582 15.4219C297.96 14.9922 298.148 14.4648 298.148 13.8398C298.148 13.1758 297.934 12.6549 297.504 12.2773C297.087 11.8997 296.579 11.7109 295.98 11.7109H286.82C286.13 11.7109 285.596 11.9258 285.219 12.3555C284.841 12.7721 284.652 13.293 284.652 13.918V21.0078C284.652 21.6849 284.861 22.2122 285.277 22.5898C285.707 22.9674 286.234 23.1562 286.859 23.1562H295.98V28H286.82C286.117 28 285.355 27.8763 284.535 27.6289C283.728 27.3815 282.973 26.9844 282.27 26.4375C281.579 25.8776 281 25.1549 280.531 24.2695C280.062 23.3711 279.828 22.2839 279.828 21.0078V13.8789C279.828 13.1758 279.952 12.4206 280.199 11.6133C280.447 10.793 280.844 10.0378 281.391 9.34766C281.951 8.64453 282.673 8.05859 283.559 7.58984C284.457 7.12109 285.544 6.88672 286.82 6.88672H295.98C296.684 6.88672 297.439 7.01042 298.246 7.25781C299.066 7.50521 299.822 7.90885 300.512 8.46875C301.215 9.01562 301.801 9.73828 302.27 10.6367C302.738 11.5221 302.973 12.6029 302.973 13.8789ZM329.789 28H324.711V16.2812C324.711 15.6172 324.594 15.0247 324.359 14.5039C324.138 13.9701 323.832 13.5143 323.441 13.1367C323.051 12.7591 322.589 12.4727 322.055 12.2773C321.534 12.069 320.967 11.9648 320.355 11.9648H311.469V28H306.391V9.40625C306.391 9.05469 306.456 8.72917 306.586 8.42969C306.716 8.11719 306.898 7.85026 307.133 7.62891C307.367 7.39453 307.641 7.21224 307.953 7.08203C308.266 6.95182 308.598 6.88672 308.949 6.88672H320.395C321.033 6.88672 321.703 6.95833 322.406 7.10156C323.122 7.24479 323.826 7.47917 324.516 7.80469C325.219 8.11719 325.883 8.52083 326.508 9.01562C327.146 9.4974 327.706 10.0898 328.188 10.793C328.682 11.4831 329.073 12.2839 329.359 13.1953C329.646 14.1068 329.789 15.1354 329.789 16.2812V28ZM352.816 11.9648H343.949V28H338.812V11.9648H332.211V6.88672H338.812V-0.0078125H343.949V6.88672H352.816V11.9648Z" fill="url(#paint0_linear_9646_1425)"/>
<defs>
<linearGradient id="paint0_linear_9646_1425" x1="31.3155" y1="-31.7143" x2="420.533" y2="35.8306" gradientUnits="userSpaceOnUse">
<stop stop-color="white"/>
<stop offset="0.884136" stop-color="#6001FF"/>
</linearGradient>
</defs>
</svg>
