<svg width="27" height="12" viewBox="0 0 27 12" fill="none" xmlns="http://www.w3.org/2000/svg">
<path d="M27 0H5C2.23858 0 0 2.23858 0 5V12H23C25.2091 12 27 10.2091 27 8V0Z" fill="url(#paint0_linear_51_9094)"/>
<path d="M6 1.25C3.37665 1.25 1.25 3.37665 1.25 6V10.75H22C24.0711 10.75 25.75 9.07107 25.75 7V1.25H6Z" stroke="black" stroke-width="0.5"/>
<path d="M5.63794 3.112H7.84594C8.05927 3.112 8.26994 3.13867 8.47794 3.192C8.68594 3.24 8.86994 3.32267 9.02994 3.44C9.19527 3.552 9.32861 3.69867 9.42994 3.88C9.53127 4.06133 9.58194 4.28 9.58194 4.536C9.58194 4.856 9.49127 5.12 9.30994 5.328C9.12861 5.536 8.89127 5.68533 8.59794 5.776V5.792C8.95527 5.84 9.24861 5.97867 9.47794 6.208C9.70727 6.43733 9.82194 6.744 9.82194 7.128C9.82194 7.43733 9.76061 7.69867 9.63794 7.912C9.51527 8.12 9.35261 8.288 9.14994 8.416C8.95261 8.544 8.72327 8.63733 8.46194 8.696C8.20594 8.74933 7.94461 8.776 7.67794 8.776H5.63794V3.112ZM6.64594 5.416H7.54194C7.87794 5.416 8.13394 5.34933 8.30994 5.216C8.48594 5.08267 8.57394 4.89333 8.57394 4.648C8.57394 4.392 8.48327 4.21067 8.30194 4.104C8.12061 3.99733 7.83794 3.944 7.45394 3.944H6.64594V5.416ZM6.64594 7.928H7.54994C7.67794 7.928 7.81661 7.92 7.96594 7.904C8.11527 7.88267 8.25127 7.84267 8.37394 7.784C8.50194 7.72533 8.60594 7.64 8.68594 7.528C8.77127 7.416 8.81394 7.26667 8.81394 7.08C8.81394 6.78133 8.71261 6.57333 8.50994 6.456C8.30727 6.33867 8.00061 6.28 7.58994 6.28H6.64594V7.928Z" fill="#0F0F0F"/>
<path d="M13.4736 6.472C13.4736 6.34933 13.455 6.232 13.4176 6.12C13.3856 6.008 13.3323 5.90933 13.2576 5.824C13.183 5.73867 13.087 5.672 12.9696 5.624C12.8576 5.57067 12.7243 5.544 12.5696 5.544C12.2816 5.544 12.0363 5.632 11.8336 5.808C11.6363 5.97867 11.527 6.2 11.5056 6.472H13.4736ZM14.4336 6.904C14.4336 6.94667 14.4336 6.98933 14.4336 7.032C14.4336 7.07467 14.431 7.11733 14.4256 7.16H11.5056C11.5163 7.29867 11.551 7.42667 11.6096 7.544C11.6736 7.656 11.7563 7.75467 11.8576 7.84C11.959 7.92 12.0736 7.984 12.2016 8.032C12.3296 8.08 12.463 8.104 12.6016 8.104C12.8416 8.104 13.0443 8.06133 13.2096 7.976C13.375 7.88533 13.511 7.76267 13.6176 7.608L14.2576 8.12C13.879 8.632 13.3296 8.888 12.6096 8.888C12.311 8.888 12.0363 8.84267 11.7856 8.752C11.535 8.656 11.3163 8.52267 11.1296 8.352C10.9483 8.18133 10.8043 7.97333 10.6976 7.728C10.5963 7.47733 10.5456 7.19467 10.5456 6.88C10.5456 6.57067 10.5963 6.29067 10.6976 6.04C10.8043 5.784 10.9483 5.568 11.1296 5.392C11.311 5.21067 11.5243 5.072 11.7696 4.976C12.0203 4.87467 12.2896 4.824 12.5776 4.824C12.8443 4.824 13.0896 4.86933 13.3136 4.96C13.543 5.04533 13.7403 5.176 13.9056 5.352C14.071 5.52267 14.199 5.73867 14.2896 6C14.3856 6.256 14.4336 6.55733 14.4336 6.904Z" fill="#0F0F0F"/>
<path d="M14.8114 5.704V4.936H15.4834V3.824H16.4274V4.936H17.3874V5.704H16.4274V7.488C16.4274 7.65867 16.4567 7.8 16.5154 7.912C16.5794 8.024 16.718 8.08 16.9314 8.08C16.9954 8.08 17.0647 8.07467 17.1394 8.064C17.214 8.048 17.2807 8.02667 17.3394 8L17.3714 8.752C17.286 8.784 17.1847 8.808 17.0674 8.824C16.95 8.84533 16.838 8.856 16.7314 8.856C16.4754 8.856 16.2674 8.82133 16.1074 8.752C15.9474 8.67733 15.8194 8.57867 15.7234 8.456C15.6327 8.328 15.5687 8.184 15.5314 8.024C15.4994 7.85867 15.4834 7.68267 15.4834 7.496V5.704H14.8114Z" fill="#0F0F0F"/>
<path d="M20.4661 8.288H20.4421C20.3461 8.45867 20.1915 8.6 19.9781 8.712C19.7648 8.81867 19.5221 8.872 19.2501 8.872C19.0955 8.872 18.9328 8.85067 18.7621 8.808C18.5968 8.77067 18.4421 8.70667 18.2981 8.616C18.1595 8.52 18.0421 8.39733 17.9461 8.248C17.8555 8.09333 17.8101 7.904 17.8101 7.68C17.8101 7.392 17.8901 7.16267 18.0501 6.992C18.2155 6.82133 18.4261 6.69067 18.6821 6.6C18.9381 6.50933 19.2208 6.45067 19.5301 6.424C19.8448 6.392 20.1515 6.376 20.4501 6.376V6.28C20.4501 6.04 20.3621 5.864 20.1861 5.752C20.0155 5.63467 19.8101 5.576 19.5701 5.576C19.3675 5.576 19.1728 5.61867 18.9861 5.704C18.7995 5.78933 18.6448 5.89333 18.5221 6.016L18.0261 5.432C18.2448 5.22933 18.4955 5.07733 18.7781 4.976C19.0661 4.87467 19.3568 4.824 19.6501 4.824C19.9915 4.824 20.2715 4.872 20.4901 4.968C20.7141 5.064 20.8901 5.18933 21.0181 5.344C21.1461 5.49867 21.2341 5.672 21.2821 5.864C21.3355 6.056 21.3621 6.248 21.3621 6.44V8.776H20.4661V8.288ZM20.4501 7.024H20.2341C20.0795 7.024 19.9168 7.032 19.7461 7.048C19.5755 7.05867 19.4181 7.088 19.2741 7.136C19.1301 7.17867 19.0101 7.24267 18.9141 7.328C18.8181 7.408 18.7701 7.52 18.7701 7.664C18.7701 7.75467 18.7888 7.832 18.8261 7.896C18.8688 7.95467 18.9221 8.00267 18.9861 8.04C19.0501 8.07733 19.1221 8.104 19.2021 8.12C19.2821 8.136 19.3621 8.144 19.4421 8.144C19.7728 8.144 20.0235 8.056 20.1941 7.88C20.3648 7.704 20.4501 7.464 20.4501 7.16V7.024Z" fill="#0F0F0F"/>
<defs>
<linearGradient id="paint0_linear_51_9094" x1="20.9487" y1="-0.400098" x2="0.0456387" y2="9.22338" gradientUnits="userSpaceOnUse">
<stop stop-color="#5CFFD6"/>
<stop offset="1" stop-color="#FFE772"/>
</linearGradient>
</defs>
</svg>
