<svg width="164" height="32" viewBox="0 0 164 32" fill="none" xmlns="http://www.w3.org/2000/svg">
<circle cx="16" cy="16" r="16" fill="url(#paint0_linear_5874_516)"/>
<mask id="mask0_5874_516" style="mask-type:luminance" maskUnits="userSpaceOnUse" x="0" y="0" width="32" height="32">
<circle cx="16" cy="16" r="16" fill="white"/>
</mask>
<g mask="url(#mask0_5874_516)">
<path d="M15.6623 -3.81934V7.32909" stroke="white" stroke-width="0.789865"/>
<path d="M14.011 -3.81934V7.32909" stroke="white" stroke-width="0.789865"/>
<path d="M17.8303 -3.81934V7.32909" stroke="white" stroke-width="0.789865"/>
<path d="M8.67145 -1.64761L12.2862 5.09456V-2.58057" stroke="white" stroke-width="0.789865"/>
<path d="M23.1246 -1.85416L19.5099 4.88801V-2.78711" stroke="white" stroke-width="0.789865"/>
<path d="M16.2348 37.2646V26.1162" stroke="white" stroke-width="0.789865"/>
<path d="M17.8866 37.2646V26.1162" stroke="white" stroke-width="0.789865"/>
<path d="M14.0671 37.2646V26.1162" stroke="white" stroke-width="0.789865"/>
<path d="M23.3309 35.2324L19.7162 28.4902V36.1654" stroke="white" stroke-width="0.789865"/>
<path d="M8.67114 35.3357L12.2859 28.5935V36.2687" stroke="white" stroke-width="0.789865"/>
<path d="M-4.59308 17.0091H6.55531" stroke="white" stroke-width="0.789865"/>
<path d="M-4.59308 18.6607H6.55531" stroke="white" stroke-width="0.789865"/>
<path d="M-4.59308 14.8414H6.55531" stroke="white" stroke-width="0.789865"/>
<path d="M-2.67959 24.0534L4.06257 20.4387H-3.61255" stroke="white" stroke-width="0.789865"/>
<path d="M-1.957 9.80664L4.78516 13.4214H-2.88995" stroke="white" stroke-width="0.789865"/>
<path d="M36.4906 16.4364H25.3422" stroke="white" stroke-width="0.789865"/>
<path d="M36.4906 14.7845H25.3422" stroke="white" stroke-width="0.789865"/>
<path d="M36.4906 18.6038H25.3422" stroke="white" stroke-width="0.789865"/>
<path d="M34.2007 9.39355L27.4586 13.0083H35.1337" stroke="white" stroke-width="0.789865"/>
<path d="M34.6135 23.9505L27.8714 20.3357H35.5465" stroke="white" stroke-width="0.789865"/>
<path d="M1.62561 31.4502L9.50872 23.5671" stroke="white" stroke-width="0.789865"/>
<path d="M2.7937 32.6182L10.6768 24.7351" stroke="white" stroke-width="0.789865"/>
<path d="M0.0926514 29.9175L7.97573 22.0344" stroke="white" stroke-width="0.789865"/>
<path d="M8.37668 35.091L10.5882 27.7676L5.16101 33.1947" stroke="white" stroke-width="0.789865"/>
<path d="M-2.33374 24.4834L4.98969 22.272L-0.437434 27.6991" stroke="white" stroke-width="0.789865"/>
<path d="M30.2719 1.99463L22.3888 9.87775" stroke="white" stroke-width="0.789865"/>
<path d="M29.1042 0.826904L21.2211 8.71003" stroke="white" stroke-width="0.789865"/>
<path d="M31.8048 3.52759L23.9218 11.4107" stroke="white" stroke-width="0.789865"/>
<path d="M23.7618 -1.40503L21.5504 5.91841L26.9775 0.491278" stroke="white" stroke-width="0.789865"/>
<path d="M34.1628 8.78993L26.8394 11.0013L32.2665 5.57422" stroke="white" stroke-width="0.789865"/>
<path d="M30.6759 31.0454L22.7928 23.1624" stroke="white" stroke-width="0.789865"/>
<path d="M31.844 29.8777L23.9609 21.9946" stroke="white" stroke-width="0.789865"/>
<path d="M29.143 32.5784L21.2599 24.6953" stroke="white" stroke-width="0.789865"/>
<path d="M34.3687 24.4835L27.0453 22.272L32.4724 27.6991" stroke="white" stroke-width="0.789865"/>
<path d="M23.8639 34.988L21.6525 27.6646L27.0796 33.0917" stroke="white" stroke-width="0.789865"/>
<path d="M1.22052 2.39966L9.10364 10.2828" stroke="white" stroke-width="0.789865"/>
<path d="M0.0524292 3.56763L7.93553 11.4507" stroke="white" stroke-width="0.789865"/>
<path d="M2.75348 0.866943L10.6366 8.75008" stroke="white" stroke-width="0.789865"/>
<path d="M-1.81775 9.30603L5.50569 11.5174L0.0785618 6.09033" stroke="white" stroke-width="0.789865"/>
<path d="M8.27354 -1.09521L10.485 6.22823L5.05786 0.801098" stroke="white" stroke-width="0.789865"/>
</g>
<circle cx="15.9488" cy="16.0515" r="10.9246" fill="#F8BA3A" stroke="white" stroke-width="0.677027"/>
<mask id="mask1_5874_516" style="mask-type:luminance" maskUnits="userSpaceOnUse" x="5" y="6" width="22" height="22">
<circle cx="16.0519" cy="16.9246" r="10.9246" fill="white"/>
</mask>
<g mask="url(#mask1_5874_516)">
<path fill-rule="evenodd" clip-rule="evenodd" d="M16.5681 5.51807L15.1229 17.131H16.5681L16.0004 27.8423L26.5326 25.9568L28.4436 11.2513L23.8018 7.16968L16.5681 5.51807Z" fill="white"/>
</g>
<path d="M5.83718 14.5976C6.08582 16.6227 7.40315 18.7296 9.42761 18.481C16.2986 17.6373 15.3332 13.222 15.2406 11.792C15.7379 15.842 18.8139 17.3285 23.9671 16.6957C25.5007 16.5074 26.1291 13.5099 25.9592 12.127C25.747 10.3983 21.17 10.1456 15.4647 10.8461C9.75934 11.5466 5.52637 12.0664 5.83718 14.5976Z" fill="#01C1AE" stroke="#01C1AE" stroke-width="1.24122" stroke-linecap="round" stroke-linejoin="round"/>
<path d="M16.1161 23.0003C18.5099 22.805 20.3057 20.8724 20.1271 18.6838L11.4584 19.3911C11.6369 21.5797 13.7223 23.1956 16.1161 23.0003Z" fill="white" stroke="#FE9D51" stroke-width="0.564189" stroke-linejoin="round"/>
<path d="M17.2385 20.6451H19.6127" stroke="#FE9A54" stroke-width="0.451351" stroke-linecap="round" stroke-linejoin="round"/>
<path d="M18.5292 15.7419C16.6711 15.04 15.9314 13.1785 15.7938 12.3355C15.7938 11.2 17.0841 11.0452 20.2324 11.0452C23.3808 11.0452 25.2905 11.3032 25.4453 12.129C25.6002 13.5742 25.0841 15.7419 24.3615 16.1032C23.6389 16.4645 20.8518 16.6194 18.5292 15.7419Z" fill="black" stroke="black" stroke-width="0.112838"/>
<path d="M13.064 16.71C14.5551 15.7273 15.3293 13.8323 14.8648 12.2323C14.6002 11.321 13.1477 11.5445 10.4261 11.9743C8.00028 12.3573 6.14223 13.4194 6.34868 14.3485C6.45185 15.8707 7.62609 17.4783 8.30996 17.7549C8.99384 18.0315 11.2003 17.9384 13.064 16.71Z" fill="black" stroke="black" stroke-width="0.112838"/>
<path d="M25.9614 7.43213L26.8675 9.88091L29.3163 10.787L26.8675 11.6931L25.9614 14.1418L25.0553 11.6931L22.6066 10.787L25.0553 9.88091L25.9614 7.43213Z" fill="white"/>
<path d="M59.918 19.0547C59.918 19.6562 59.8398 20.1992 59.6836 20.6836C59.5352 21.1602 59.3359 21.582 59.0859 21.9492C58.8359 22.3164 58.543 22.6289 58.207 22.8867C57.8711 23.1445 57.5234 23.3555 57.1641 23.5195C56.8047 23.6836 56.4375 23.8047 56.0625 23.8828C55.6953 23.9609 55.3477 24 55.0195 24H43.2656V20.9531H55.0195C55.6055 20.9531 56.0586 20.7812 56.3789 20.4375C56.707 20.0938 56.8711 19.6328 56.8711 19.0547C56.8711 18.7734 56.8281 18.5156 56.7422 18.2812C56.6562 18.0469 56.5312 17.8438 56.3672 17.6719C56.2109 17.5 56.0156 17.3672 55.7812 17.2734C55.5547 17.1797 55.3008 17.1328 55.0195 17.1328H48.0117C47.5195 17.1328 46.9883 17.0469 46.418 16.875C45.8477 16.6953 45.3164 16.4102 44.8242 16.0195C44.3398 15.6289 43.9336 15.1172 43.6055 14.4844C43.2852 13.8516 43.125 13.0781 43.125 12.1641C43.125 11.25 43.2852 10.4805 43.6055 9.85547C43.9336 9.22266 44.3398 8.71094 44.8242 8.32031C45.3164 7.92188 45.8477 7.63672 46.418 7.46484C46.9883 7.28516 47.5195 7.19531 48.0117 7.19531H58.3828V10.2422H48.0117C47.4336 10.2422 46.9805 10.418 46.6523 10.7695C46.332 11.1211 46.1719 11.5859 46.1719 12.1641C46.1719 12.75 46.332 13.2148 46.6523 13.5586C46.9805 13.8945 47.4336 14.0625 48.0117 14.0625H55.0195H55.043C55.3711 14.0703 55.7188 14.1172 56.0859 14.2031C56.4531 14.2812 56.8164 14.4062 57.1758 14.5781C57.543 14.75 57.8906 14.9688 58.2188 15.2344C58.5469 15.4922 58.8359 15.8047 59.0859 16.1719C59.3438 16.5391 59.5469 16.9609 59.6953 17.4375C59.8438 17.9141 59.918 18.4531 59.918 19.0547ZM75.2409 22.4648C75.2409 22.6836 75.2019 22.8867 75.1238 23.0742C75.0456 23.2617 74.9363 23.4258 74.7956 23.5664C74.6628 23.6992 74.5027 23.8047 74.3152 23.8828C74.1355 23.9609 73.9402 24 73.7292 24H66.8386C66.4636 24 66.0613 23.957 65.6316 23.8711C65.2097 23.7852 64.7917 23.6484 64.3777 23.4609C63.9636 23.2656 63.5613 23.0234 63.1706 22.7344C62.7878 22.4375 62.4519 22.082 62.1628 21.668C61.8738 21.2461 61.6394 20.7617 61.4597 20.2148C61.2878 19.668 61.2019 19.0508 61.2019 18.3633V11.332H64.2488V18.3633C64.2488 18.7617 64.3152 19.1211 64.448 19.4414C64.5886 19.7539 64.7761 20.0234 65.0105 20.25C65.2448 20.4766 65.5183 20.6523 65.8308 20.7773C66.1511 20.8945 66.4948 20.9531 66.862 20.9531H72.1941V11.332H75.2409V22.4648ZM91.4194 24H88.3725V16.9688C88.3725 16.5703 88.3022 16.2148 88.1616 15.9023C88.0288 15.582 87.8452 15.3086 87.6108 15.082C87.3764 14.8555 87.0991 14.6836 86.7788 14.5664C86.4663 14.4414 86.1264 14.3789 85.7592 14.3789H80.4272V24H77.3803V12.8438C77.3803 12.6328 77.4194 12.4375 77.4975 12.2578C77.5756 12.0703 77.685 11.9102 77.8256 11.7773C77.9663 11.6367 78.1303 11.5273 78.3178 11.4492C78.5053 11.3711 78.7045 11.332 78.9155 11.332H85.7827C86.1655 11.332 86.5678 11.375 86.9897 11.4609C87.4194 11.5469 87.8413 11.6875 88.2553 11.8828C88.6772 12.0703 89.0756 12.3125 89.4506 12.6094C89.8334 12.8984 90.1694 13.2539 90.4584 13.6758C90.7553 14.0898 90.9897 14.5703 91.1616 15.1172C91.3334 15.6641 91.4194 16.2812 91.4194 16.9688V24ZM110.457 14.2266C110.457 14.9219 110.371 15.543 110.199 16.0898C110.028 16.6367 109.793 17.1211 109.496 17.543C109.207 17.957 108.871 18.3125 108.488 18.6094C108.106 18.9062 107.703 19.1484 107.281 19.3359C106.867 19.5234 106.445 19.6602 106.016 19.7461C105.594 19.832 105.195 19.875 104.82 19.875H97.9298V16.8281H104.82C105.211 16.7969 105.563 16.7188 105.875 16.5938C106.195 16.4609 106.469 16.2852 106.695 16.0664C106.922 15.8477 107.098 15.5859 107.223 15.2812C107.348 14.9688 107.41 14.6172 107.41 14.2266V12.8438C107.371 12.4609 107.289 12.1094 107.164 11.7891C107.039 11.4688 106.867 11.1953 106.649 10.9688C106.438 10.7422 106.18 10.5664 105.875 10.4414C105.57 10.3086 105.219 10.2422 104.82 10.2422H97.9533C97.547 10.2422 97.2384 10.3477 97.0275 10.5586C96.8166 10.7695 96.7111 11.0742 96.7111 11.4727V24H93.6642V11.4727C93.6642 10.6914 93.8048 10.0273 94.0861 9.48047C94.3752 8.93359 94.7306 8.49219 95.1525 8.15625C95.5822 7.82031 96.047 7.57813 96.547 7.42969C97.047 7.27344 97.508 7.19531 97.9298 7.19531H104.82C105.508 7.19531 106.125 7.28516 106.672 7.46484C107.219 7.63672 107.699 7.87109 108.113 8.16797C108.535 8.45703 108.891 8.79297 109.18 9.17578C109.477 9.55859 109.719 9.96094 109.906 10.3828C110.102 10.7969 110.242 11.2188 110.328 11.6484C110.414 12.0703 110.457 12.4688 110.457 12.8438V14.2266ZM125.862 22.4648C125.862 22.6836 125.823 22.8867 125.745 23.0742C125.667 23.2617 125.558 23.4258 125.417 23.5664C125.284 23.6992 125.124 23.8047 124.936 23.8828C124.757 23.9609 124.561 24 124.35 24H117.46C117.085 24 116.683 23.957 116.253 23.8711C115.831 23.7852 115.413 23.6484 114.999 23.4609C114.585 23.2656 114.183 23.0234 113.792 22.7344C113.409 22.4375 113.073 22.082 112.784 21.668C112.495 21.2461 112.261 20.7617 112.081 20.2148C111.909 19.668 111.823 19.0508 111.823 18.3633V11.332H114.87V18.3633C114.87 18.7617 114.936 19.1211 115.069 19.4414C115.21 19.7539 115.397 20.0234 115.632 20.25C115.866 20.4766 116.14 20.6523 116.452 20.7773C116.772 20.8945 117.116 20.9531 117.483 20.9531H122.815V11.332H125.862V22.4648ZM139.31 24H136.263V15.5977C136.263 15.1992 136.158 14.8984 135.947 14.6953C135.736 14.4844 135.423 14.3789 135.009 14.3789H131.048V24H128.002V12.8438C128.002 12.6328 128.041 12.4375 128.119 12.2578C128.197 12.0703 128.306 11.9102 128.447 11.7773C128.588 11.6367 128.752 11.5273 128.939 11.4492C129.127 11.3711 129.326 11.332 129.537 11.332H135.033C135.455 11.332 135.908 11.4062 136.392 11.5547C136.877 11.7031 137.338 11.9414 137.775 12.2695V11.332H141.9C142.189 11.332 142.494 11.3672 142.814 11.4375C143.134 11.5 143.451 11.6016 143.763 11.7422C144.084 11.8828 144.388 12.0664 144.677 12.293C144.966 12.5117 145.22 12.7812 145.439 13.1016C145.658 13.4141 145.834 13.7773 145.966 14.1914C146.099 14.6055 146.166 15.0742 146.166 15.5977V24H143.119V15.5977C143.119 15.1992 143.017 14.8984 142.814 14.6953C142.619 14.4844 142.314 14.3789 141.9 14.3789H139.158C139.259 14.7539 139.31 15.1602 139.31 15.5977V24ZM162.227 19.7227C162.227 20.2461 162.16 20.7188 162.028 21.1406C161.895 21.5547 161.719 21.9219 161.5 22.2422C161.282 22.5547 161.028 22.8242 160.739 23.0508C160.45 23.2695 160.145 23.4492 159.825 23.5898C159.512 23.7305 159.196 23.8359 158.875 23.9062C158.555 23.9688 158.25 24 157.961 24H152.465V20.9531H157.961C158.368 20.9531 158.672 20.8477 158.875 20.6367C159.078 20.4258 159.18 20.1211 159.18 19.7227V15.6211C159.18 15.1992 159.075 14.8867 158.864 14.6836C158.66 14.4805 158.36 14.3789 157.961 14.3789H152.489C152.075 14.3789 151.762 14.4844 151.551 14.6953C151.34 14.8984 151.235 15.1992 151.235 15.5977V27.9609H148.188V15.5977C148.188 15.0742 148.254 14.6055 148.387 14.1914C148.52 13.7773 148.696 13.4141 148.914 13.1016C149.141 12.7812 149.399 12.5117 149.688 12.293C149.977 12.0664 150.278 11.8828 150.59 11.7422C150.91 11.6016 151.231 11.5 151.551 11.4375C151.879 11.3672 152.184 11.332 152.465 11.332H157.961C158.485 11.332 158.953 11.3984 159.368 11.5312C159.782 11.6641 160.145 11.8398 160.457 12.0586C160.778 12.2773 161.047 12.5312 161.266 12.8203C161.493 13.1094 161.676 13.4141 161.817 13.7344C161.957 14.0469 162.059 14.3633 162.121 14.6836C162.192 15.0039 162.227 15.3086 162.227 15.5977V19.7227Z" fill="white"/>
<defs>
<linearGradient id="paint0_linear_5874_516" x1="0" y1="0" x2="0" y2="32" gradientUnits="userSpaceOnUse">
<stop stop-color="#F5B745"/>
<stop offset="1" stop-color="#FC8B47"/>
</linearGradient>
</defs>
</svg>
